<mxfile host="65bd71144e">
    <diagram id="WkwatpjAscy0-W3aGPCD" name="PÃ¡gina-1">
        <mxGraphModel dx="734" dy="361" grid="1" gridSize="10" guides="1" tooltips="1" connect="1" arrows="1" fold="1" page="1" pageScale="1" pageWidth="583" pageHeight="827" math="0" shadow="0">
            <root>
                <mxCell id="0"/>
                <mxCell id="1" parent="0"/>
                <mxCell id="3" style="edgeStyle=none;html=1;exitX=0.413;exitY=1.047;exitDx=0;exitDy=0;exitPerimeter=0;entryX=0.538;entryY=-0.02;entryDx=0;entryDy=0;entryPerimeter=0;" edge="1" parent="1" source="2" target="4">
                    <mxGeometry relative="1" as="geometry">
                        <mxPoint x="130" y="130" as="targetPoint"/>
                        <Array as="points"/>
                    </mxGeometry>
                </mxCell>
                <mxCell id="7" style="edgeStyle=none;html=1;" edge="1" parent="1" source="2" target="5">
                    <mxGeometry relative="1" as="geometry"/>
                </mxCell>
                <mxCell id="8" style="edgeStyle=none;html=1;" edge="1" parent="1" source="2" target="6">
                    <mxGeometry relative="1" as="geometry"/>
                </mxCell>
                <mxCell id="2" value="Inventario" style="shape=mxgraph.uml25.actionParams;html=1;align=center;verticalAlign=top;absoluteArcSize=1;arcSize=10;dashed=0;spacingLeft=10;spacingTop=5;" vertex="1" parent="1">
                    <mxGeometry x="170" y="30" width="150" height="50" as="geometry"/>
                </mxCell>
                <mxCell id="10" style="edgeStyle=none;html=1;" edge="1" parent="1" source="4" target="9">
                    <mxGeometry relative="1" as="geometry"/>
                </mxCell>
                <mxCell id="12" style="edgeStyle=none;html=1;" edge="1" parent="1" source="4" target="11">
                    <mxGeometry relative="1" as="geometry"/>
                </mxCell>
                <mxCell id="4" value="Reposicion Stock" style="shape=mxgraph.uml25.actionParams;html=1;align=center;verticalAlign=top;absoluteArcSize=1;arcSize=10;dashed=0;spacingLeft=10;spacingTop=5;" vertex="1" parent="1">
                    <mxGeometry x="110" y="170" width="150" height="50" as="geometry"/>
                </mxCell>
                <mxCell id="5" value="Inventario" style="shape=mxgraph.uml25.actionParams;html=1;align=center;verticalAlign=top;absoluteArcSize=1;arcSize=10;dashed=0;spacingLeft=10;spacingTop=5;" vertex="1" parent="1">
                    <mxGeometry x="520" y="240" width="150" height="50" as="geometry"/>
                </mxCell>
                <mxCell id="6" value="Inventario" style="shape=mxgraph.uml25.actionParams;html=1;align=center;verticalAlign=top;absoluteArcSize=1;arcSize=10;dashed=0;spacingLeft=10;spacingTop=5;" vertex="1" parent="1">
                    <mxGeometry x="530" y="30" width="150" height="50" as="geometry"/>
                </mxCell>
                <mxCell id="13" style="edgeStyle=none;html=1;entryX=0.05;entryY=0.553;entryDx=0;entryDy=0;entryPerimeter=0;" edge="1" parent="1" source="9" target="11">
                    <mxGeometry relative="1" as="geometry"/>
                </mxCell>
                <mxCell id="9" value="Stock Fisico" style="shape=mxgraph.uml25.actionParams;html=1;align=center;verticalAlign=top;absoluteArcSize=1;arcSize=10;dashed=0;spacingLeft=10;spacingTop=5;" vertex="1" parent="1">
                    <mxGeometry x="30" y="300" width="150" height="50" as="geometry"/>
                </mxCell>
                <mxCell id="11" value="Solicitud Resposicion" style="shape=mxgraph.uml25.actionParams;html=1;align=center;verticalAlign=top;absoluteArcSize=1;arcSize=10;dashed=0;spacingLeft=10;spacingTop=5;" vertex="1" parent="1">
                    <mxGeometry x="270" y="300" width="180" height="50" as="geometry"/>
                </mxCell>
            </root>
        </mxGraphModel>
    </diagram>
</mxfile>